<?xml version="1.0" encoding="UTF-8" standalone="no"?>
<!DOCTYPE svg PUBLIC "-//W3C//DTD SVG 1.1//EN" "http://www.w3.org/Graphics/SVG/1.1/DTD/svg11.dtd">
<svg width="100%" height="100%" viewBox="0 0 5568 758" version="1.1" xmlns="http://www.w3.org/2000/svg" xmlns:xlink="http://www.w3.org/1999/xlink" xml:space="preserve" xmlns:serif="http://www.serif.com/" style="fill-rule:evenodd;clip-rule:evenodd;stroke-linejoin:round;stroke-miterlimit:2;">
    <g id="Artboard2" transform="matrix(0.585237,0,0,1,0,0)">
        <rect x="0" y="0" width="9513.76" height="757.33" style="fill:none;"/>
        <g id="Artboard1" transform="matrix(1.59272,0,0,0.673182,0,0)">
            <g transform="matrix(0.301853,0,0,0.417961,168.007,-0.190016)">
                <path d="M1284.51,358.836L843.589,1066.52L400.893,1777.07L339.093,1220.76C458.647,1296.52 623.585,1399.34 632.597,1404.96L784.114,1161.89C781.251,1160.1 497.505,983.207 404.53,922.59C326.147,871.482 228.601,869.67 149.947,917.895C73.61,964.699 32.189,1049.55 41.91,1139.82L133.26,1962.06C143.985,2061.71 213.989,2140.85 311.572,2163.67C316.26,2164.76 320.939,2165.72 325.61,2166.52C418.451,2182.57 509.614,2142.49 561.526,2060.89L1526.88,511.446C1607.77,384.333 1713.02,317.075 1808.43,331.533L1808.46,331.541C1901.82,345.071 1980.03,438.291 2018.75,579.446C2027.75,615.071 2207.34,1325.05 2269.48,1561.15C2303.7,1691.11 2239.41,1791.24 2167.84,1841.61C2076.7,1905.77 1967.14,1906.21 1874.77,1842.78L1268.38,1467.53L1117.51,1711.01L1715.63,2080.95C1904.52,2208.88 2146.34,2207 2332.71,2075.85C2521.55,1942.94 2605.45,1712.29 2546.47,1488.24C2483.39,1248.58 2297.96,515.275 2296.1,507.896L2295.44,505.396C2226.82,253.241 2063.76,83.171 1857.18,49.475C1855.23,49.158 1853.34,48.637 1851.37,48.346C1828.23,44.837 1805.04,43.104 1781.97,43.104C1594.79,43.091 1412.98,156.908 1284.51,358.837L1284.51,358.836Z" style="fill:rgb(250,249,249);fill-rule:nonzero;"/>
            </g>
            <g transform="matrix(1.17517,0,0,1.48548,-168.363,-118.091)">
                <path d="M1477.82,658.743C1458.09,658.743 1445.49,648.326 1440.02,627.493L1413.63,525.149L1209.65,525.149L1183.27,627.493C1177.56,648.326 1165.08,658.743 1145.82,658.743L1108.02,658.743C1096.14,658.743 1087.64,654.967 1082.53,647.415C1077.41,639.863 1076.52,629.837 1079.85,617.337L1176.85,263.821C1189.92,214.602 1206.57,180.227 1226.77,160.696C1246.98,141.165 1275.39,131.399 1312,131.399C1348.85,131.399 1377.44,141.23 1397.77,160.891C1418.09,180.553 1434.55,214.863 1447.15,263.821L1543.8,617.337C1547.12,629.837 1546.23,639.863 1541.12,647.415C1536.01,654.967 1527.51,658.743 1515.62,658.743L1477.82,658.743ZM1233.9,431.009L1389.74,431.009L1349.44,273.587C1344.93,255.878 1339.93,243.834 1334.47,237.454C1329,231.074 1321.51,227.884 1312,227.884C1302.49,227.884 1295,231.074 1289.54,237.454C1284.07,243.834 1278.96,255.878 1274.2,273.587L1233.9,431.009Z" style="fill:rgb(250,249,249);fill-rule:nonzero;"/>
                <path d="M2014.16,258.352C2065.98,258.352 2105.92,272.675 2133.98,301.321C2162.03,329.967 2176.06,376.321 2176.06,440.384L2176.06,622.024C2176.06,633.743 2173.14,642.792 2167.32,649.173C2161.49,655.553 2153.23,658.743 2142.53,658.743L2110.08,658.743C2099.39,658.743 2091.12,655.553 2085.3,649.173C2079.47,642.792 2076.56,633.743 2076.56,622.024L2076.56,434.915C2076.56,406.269 2070.8,385.305 2059.27,372.024C2047.74,358.743 2029.97,352.102 2005.96,352.102C1982.18,352.102 1965.24,358.613 1955.14,371.634C1945.04,384.654 1939.98,405.748 1939.98,434.915L1939.98,622.024C1939.98,633.743 1937.01,642.792 1931.07,649.173C1925.12,655.553 1916.8,658.743 1906.11,658.743L1874.01,658.743C1863.31,658.743 1855.05,655.553 1849.23,649.173C1843.4,642.792 1840.49,633.743 1840.49,622.024L1840.49,434.915C1840.49,405.748 1835.44,384.654 1825.34,371.634C1815.23,358.613 1798.29,352.102 1774.52,352.102C1750.51,352.102 1732.74,358.743 1721.21,372.024C1709.68,385.305 1703.91,406.269 1703.91,434.915L1703.91,622.024C1703.91,633.743 1701,642.792 1695.17,649.173C1689.35,655.553 1681.09,658.743 1670.39,658.743L1637.94,658.743C1627.24,658.743 1618.92,655.553 1612.98,649.173C1607.03,642.792 1604.06,633.743 1604.06,622.024L1604.06,440.384C1604.06,376.321 1618.03,329.967 1645.96,301.321C1673.9,272.675 1713.78,258.352 1765.6,258.352C1826.23,258.352 1867.71,277.102 1890.06,314.602C1912.17,277.102 1953.53,258.352 2014.16,258.352Z" style="fill:rgb(250,249,249);fill-rule:nonzero;"/>
                <path d="M2565.83,613.04C2533.97,648.196 2488.32,665.774 2428.89,665.774C2369.45,665.774 2323.81,648.131 2291.95,612.845C2260.1,577.558 2244.17,527.363 2244.17,462.259C2244.17,396.894 2260.1,346.569 2291.95,311.282C2323.81,275.996 2369.45,258.352 2428.89,258.352C2488.32,258.352 2533.97,275.996 2565.83,311.282C2597.68,346.569 2613.61,396.894 2613.61,462.259C2613.61,527.363 2597.68,577.623 2565.83,613.04ZM2367.2,545.852C2380.51,563.561 2401.07,572.415 2428.89,572.415C2456.7,572.415 2477.33,563.626 2490.76,546.048C2504.19,528.47 2510.91,500.54 2510.91,462.259C2510.91,423.977 2504.19,396.048 2490.76,378.47C2477.33,360.891 2456.7,352.102 2428.89,352.102C2401.07,352.102 2380.51,360.891 2367.2,378.47C2353.88,396.048 2347.23,423.977 2347.23,462.259C2347.23,500.279 2353.88,528.144 2367.2,545.852Z" style="fill:rgb(250,249,249);fill-rule:nonzero;"/>
                <path d="M2866.44,261.868C2878.09,261.608 2886.95,264.602 2893.01,270.852C2899.07,277.102 2902.11,286.217 2902.11,298.196L2902.11,321.634C2902.11,345.852 2889.86,358.222 2865.37,358.743C2839.46,359.264 2820.98,360.696 2809.92,363.04C2798.87,365.384 2791.97,368.834 2789.24,373.391C2786.51,377.949 2785.14,385.826 2785.14,397.024L2785.14,622.024C2785.14,633.743 2782.23,642.792 2776.4,649.173C2770.58,655.553 2762.32,658.743 2751.62,658.743L2715.6,658.743C2704.9,658.743 2696.58,655.553 2690.64,649.173C2684.69,642.792 2681.72,633.743 2681.72,622.024L2681.72,381.009C2681.72,361.738 2683.27,345.917 2686.36,333.548C2689.45,321.178 2694.74,310.24 2702.23,300.735C2709.72,291.23 2720.59,283.873 2734.86,278.665C2749.12,273.457 2766.71,269.485 2787.63,266.751C2808.55,264.016 2834.83,262.389 2866.44,261.868Z" style="fill:rgb(250,249,249);fill-rule:nonzero;"/>
                <path d="M3107.15,258.352C3140.2,258.352 3168.91,261.868 3193.27,268.899C3217.64,275.93 3238.8,287.324 3256.75,303.079C3274.7,318.834 3288.25,339.928 3297.4,366.36C3306.56,392.792 3311.13,424.824 3311.13,462.454C3311.13,500.084 3306.56,532.05 3297.4,558.352C3288.25,584.654 3274.7,605.618 3256.75,621.243C3238.8,636.868 3217.64,648.196 3193.27,655.227C3168.91,662.259 3140.2,665.774 3107.15,665.774C3090.75,665.774 3073.75,664.993 3056.16,663.43L3056.16,781.79C3056.16,793.509 3053.25,802.623 3047.42,809.134C3041.6,815.644 3033.34,818.899 3022.64,818.899L2988.4,818.899C2977.7,818.899 2969.38,815.644 2963.44,809.134C2957.5,802.623 2954.53,793.509 2954.53,781.79L2954.53,384.134C2954.53,339.602 2966.59,307.506 2990.72,287.845C3014.85,268.183 3053.66,258.352 3107.15,258.352ZM3113.22,572.415C3147.69,572.415 3172.35,564.277 3187.21,548.001C3202.07,531.725 3209.5,503.209 3209.5,462.454C3209.5,421.699 3202.07,393.118 3187.21,376.712C3172.35,360.305 3147.93,352.102 3113.93,352.102C3096.81,352.102 3084.09,354.055 3075.77,357.962C3067.45,361.868 3062.1,367.337 3059.72,374.368C3057.35,381.399 3056.16,391.816 3056.16,405.618L3056.16,568.118C3078.74,570.983 3097.76,572.415 3113.22,572.415Z" style="fill:rgb(250,249,249);fill-rule:nonzero;"/>
                <path d="M3531.51,258.352C3564.56,258.352 3593.27,261.868 3617.63,268.899C3642,275.93 3663.16,287.259 3681.11,302.884C3699.06,318.509 3712.61,339.537 3721.76,365.97C3730.91,392.402 3735.49,424.368 3735.49,461.868L3735.49,622.024C3735.49,633.743 3732.58,642.792 3726.76,649.173C3720.93,655.553 3712.67,658.743 3701.97,658.743L3667.38,658.743C3656.68,658.743 3648.42,655.553 3642.6,649.173C3636.77,642.792 3633.86,633.743 3633.86,622.024L3633.86,461.868C3633.86,420.201 3626.37,391.425 3611.39,375.54C3596.42,359.654 3570.86,351.712 3534.72,351.712C3522.6,351.712 3504.53,352.623 3480.52,354.446L3480.52,622.024C3480.52,633.743 3477.61,642.792 3471.78,649.173C3465.96,655.553 3457.7,658.743 3447,658.743L3412.76,658.743C3402.07,658.743 3393.74,655.553 3387.8,649.173C3381.86,642.792 3378.89,633.743 3378.89,622.024L3378.89,135.696C3378.89,123.977 3381.86,114.863 3387.8,108.352C3393.74,101.842 3402.07,98.587 3412.76,98.587L3447,98.587C3457.7,98.587 3465.96,101.842 3471.78,108.352C3477.61,114.863 3480.52,123.977 3480.52,135.696L3480.52,260.696C3498.11,259.134 3515.11,258.352 3531.51,258.352Z" style="fill:rgb(250,249,249);fill-rule:nonzero;"/>
                <path d="M3871.72,214.212C3853.17,214.212 3839.14,208.873 3829.64,198.196C3820.13,187.519 3815.37,172.48 3815.37,153.079C3815.37,133.678 3820.19,118.509 3829.81,107.571C3839.44,96.634 3853.41,91.165 3871.72,91.165C3890.5,91.165 3904.64,96.569 3914.15,107.376C3923.66,118.183 3928.41,133.483 3928.41,153.274C3928.41,172.805 3923.66,187.845 3914.15,198.391C3904.64,208.938 3890.5,214.212 3871.72,214.212ZM3853.53,658.743C3842.83,658.743 3834.57,655.553 3828.74,649.173C3822.92,642.792 3820.01,633.743 3820.01,622.024L3820.01,302.493C3820.01,290.774 3822.92,281.66 3828.74,275.149C3834.57,268.639 3842.83,265.384 3853.53,265.384L3889.9,265.384C3900.6,265.384 3908.86,268.639 3914.69,275.149C3920.51,281.66 3923.42,290.774 3923.42,302.493L3923.42,622.024C3923.42,633.743 3920.51,642.792 3914.69,649.173C3908.86,655.553 3900.6,658.743 3889.9,658.743L3853.53,658.743Z" style="fill:rgb(250,249,249);fill-rule:nonzero;"/>
                <path d="M4199.44,350.149C4165.44,350.149 4140.89,359.003 4125.8,376.712C4110.7,394.42 4103.15,423.001 4103.15,462.454C4103.15,501.907 4110.7,530.292 4125.8,547.61C4140.89,564.928 4165.44,573.587 4199.44,573.587C4218.22,573.587 4238.42,571.503 4260.06,567.337C4271.71,565.253 4280.8,566.946 4287.34,572.415C4293.88,577.884 4297.15,586.998 4297.15,599.759L4297.15,613.43C4297.15,635.826 4287.64,649.498 4268.62,654.446C4239.61,662.259 4211.09,666.035 4183.03,665.774C4127.4,665.774 4083,648.522 4049.84,614.016C4016.68,579.511 4000.09,528.925 4000.09,462.259C4000.09,395.592 4016.68,344.941 4049.84,310.305C4083,275.67 4127.4,258.352 4183.03,258.352C4211.09,258.352 4239.61,262.259 4268.62,270.071C4287.64,274.759 4297.15,288.3 4297.15,310.696L4297.15,324.368C4297.15,336.868 4293.34,345.787 4285.73,351.126C4278.13,356.464 4267.43,357.962 4253.64,355.618C4232.01,351.972 4213.94,350.149 4199.44,350.149Z" style="fill:rgb(250,249,249);fill-rule:nonzero;"/>
                <path d="M4913,658.743C4893.27,658.743 4880.67,648.326 4875.2,627.493L4848.81,525.149L4644.84,525.149L4618.45,627.493C4612.74,648.326 4600.26,658.743 4581,658.743L4543.2,658.743C4531.32,658.743 4522.82,654.967 4517.71,647.415C4512.6,639.863 4511.7,629.837 4515.03,617.337L4612.03,263.821C4625.1,214.602 4641.74,180.227 4661.95,160.696C4682.16,141.165 4710.57,131.399 4747.18,131.399C4784.03,131.399 4812.62,141.23 4832.94,160.891C4853.27,180.553 4869.73,214.863 4882.34,263.821L4978.98,617.337C4982.3,629.837 4981.41,639.863 4976.3,647.415C4971.19,654.967 4962.69,658.743 4950.8,658.743L4913,658.743ZM4669.09,431.009L4824.92,431.009L4784.62,273.587C4780.11,255.878 4775.12,243.834 4769.65,237.454C4764.18,231.074 4756.69,227.884 4747.18,227.884C4737.67,227.884 4730.18,231.074 4724.72,237.454C4719.25,243.834 4714.14,255.878 4709.38,273.587L4669.09,431.009Z" style="fill:rgb(250,249,249);fill-rule:nonzero;"/>
                <path d="M5094.87,658.743C5084.17,658.743 5075.91,655.553 5070.09,649.173C5064.26,642.792 5061.35,633.743 5061.35,622.024L5061.35,175.54C5061.35,163.821 5064.26,154.772 5070.09,148.391C5075.91,142.011 5084.17,138.821 5094.87,138.821L5131.96,138.821C5142.66,138.821 5150.92,142.011 5156.74,148.391C5162.57,154.772 5165.48,163.821 5165.48,175.54L5165.48,622.024C5165.48,633.743 5162.57,642.792 5156.74,649.173C5150.92,655.553 5142.66,658.743 5131.96,658.743L5094.87,658.743Z" style="fill:rgb(250,249,249);fill-rule:nonzero;"/>
            </g>
        </g>
    </g>
</svg>
