<?xml version="1.0" encoding="UTF-8" standalone="no"?>
<!DOCTYPE svg PUBLIC "-//W3C//DTD SVG 1.1//EN" "http://www.w3.org/Graphics/SVG/1.1/DTD/svg11.dtd">
<svg width="100%" height="100%" viewBox="0 0 4000 2008" version="1.1" xmlns="http://www.w3.org/2000/svg" xmlns:xlink="http://www.w3.org/1999/xlink" xml:space="preserve" xmlns:serif="http://www.serif.com/" style="fill-rule:evenodd;clip-rule:evenodd;stroke-linejoin:round;stroke-miterlimit:2;">
    <g id="Artboard2" transform="matrix(1.01719,0,0,0.790407,0,0)">
        <rect x="0" y="0" width="3931.6" height="2539.59" style="fill:none;"/>
        <g id="Artboard1" transform="matrix(0.769713,0,0,2.44024,-133.689,-50.3566)">
            <g transform="matrix(1.00811,0,0,1.21118,1417.53,-1931.69)">
                <path d="M1735.54,1947.56C1768.86,1947.56 1799.11,1948.78 1826.3,1951.22C1853.49,1953.66 1877.38,1957.35 1897.97,1962.29C1918.56,1967.23 1934.51,1973.79 1945.82,1981.97C1957.14,1990.14 1962.8,1999.54 1962.8,2010.16L1962.8,2064C1962.8,2080.78 1951.01,2092.78 1927.43,2100.01C1903.86,2107.23 1865.83,2110.84 1813.34,2110.84L1703.48,2110.84C1640.31,2110.84 1592.92,2107.23 1561.33,2100.01C1529.74,2092.78 1513.95,2080.09 1513.95,2061.93C1513.95,2052.48 1518.19,2044.52 1526.68,2038.04C1535.16,2031.56 1547.97,2026.49 1565.1,2022.83C1582.23,2019.16 1601.88,2016.59 1624.04,2015.1C1646.2,2013.61 1672.68,2012.87 1703.48,2012.87L1828.42,2012.87L1828.42,2010.16C1828.42,1992.96 1791.02,1984.36 1716.21,1984.36C1681.95,1984.36 1640.46,1986.05 1591.74,1989.45C1576.34,1990.41 1564.32,1989.75 1555.67,1987.46C1547.03,1985.18 1542.71,1981.43 1542.71,1976.23L1542.71,1970.18C1542.71,1960.94 1558.27,1955.31 1589.38,1953.29C1642.82,1949.47 1691.54,1947.56 1735.54,1947.56ZM1780.33,2078.34C1799.82,2078.34 1812.71,2077.07 1819,2074.52C1825.28,2071.97 1828.42,2067.72 1828.42,2061.77L1828.42,2045.21L1710.56,2045.21C1682.27,2045.21 1663.41,2046.4 1653.98,2048.79C1644.55,2051.18 1639.83,2055.56 1639.83,2061.93C1639.83,2068.09 1644.47,2072.37 1653.74,2074.76C1663.01,2077.15 1681.8,2078.34 1710.08,2078.34L1780.33,2078.34Z" style="fill:rgb(6,118,225);fill-rule:nonzero;"/>
                <path d="M2142.9,1929.56C2118.38,1929.56 2099.84,1927.38 2087.27,1923.03C2074.69,1918.67 2068.41,1912.54 2068.41,1904.63C2068.41,1896.72 2074.77,1890.53 2087.5,1886.07C2100.23,1881.61 2118.7,1879.38 2142.9,1879.38C2167.73,1879.38 2186.43,1881.58 2199.01,1885.99C2211.58,1890.4 2217.87,1896.63 2217.87,1904.71C2217.87,1912.67 2211.58,1918.8 2199.01,1923.11C2186.43,1927.41 2167.73,1929.56 2142.9,1929.56ZM2118.86,2110.84C2104.71,2110.84 2093.79,2109.54 2086.09,2106.93C2078.39,2104.33 2074.54,2100.64 2074.54,2095.86L2074.54,1965.56C2074.54,1960.78 2078.39,1957.06 2086.09,1954.41C2093.79,1951.75 2104.71,1950.42 2118.86,1950.42L2166.95,1950.42C2181.09,1950.42 2192.01,1951.75 2199.71,1954.41C2207.41,1957.06 2211.26,1960.78 2211.26,1965.56L2211.26,2095.86C2211.26,2100.64 2207.41,2104.33 2199.71,2106.93C2192.01,2109.54 2181.09,2110.84 2166.95,2110.84L2118.86,2110.84Z" style="fill:rgb(6,118,225);fill-rule:nonzero;"/>
                <g transform="matrix(0.804657,0,0,0.271868,348.652,1639.83)">
                    <path d="M1751.23,1032.48C1791.29,1034.21 1828.23,1039.72 1862.07,1048.72C1908.13,1060.97 1948.45,1079.79 1983.32,1104.55C1992.52,1111.08 2001.25,1118.09 2009.5,1125.59C1949.73,895.02 1828.76,416.621 1827.42,411.319L1826.9,409.339C1772.54,209.578 1643.36,74.846 1479.7,48.151C1478.15,47.9 1476.66,47.487 1475.1,47.257C1456.77,44.477 1438.4,43.104 1420.12,43.104C1271.83,43.094 1127.8,133.261 1026.03,293.232L676.721,853.866L326.011,1416.77L277.052,976.058C371.764,1036.08 502.431,1117.53 509.57,1121.99L629.604,929.42C627.336,928.004 402.548,787.868 328.892,739.846C266.796,699.357 189.518,697.922 127.208,736.127C66.732,773.205 33.918,840.428 41.619,911.939L113.988,1563.33C122.484,1642.28 177.943,1704.97 255.249,1723.05C258.963,1723.91 262.67,1724.67 266.37,1725.31C339.921,1738.02 412.141,1706.27 453.267,1641.62L1218.03,414.132C1282.12,313.431 1365.5,260.148 1441.09,271.602L1441.11,271.608C1515.07,282.327 1577.02,356.177 1607.7,468.002C1612.92,488.675 1690.66,795.993 1751.23,1032.48ZM1384.27,1401.15L1013.25,1171.56L893.729,1364.44L1362.43,1654.34C1353.17,1624.75 1348.19,1590.94 1348.19,1552.59C1348.19,1501.73 1357.14,1459.09 1372.57,1424.23C1376.12,1416.2 1380.02,1408.51 1384.27,1401.15Z" style="fill:rgb(6,118,225);fill-rule:nonzero;"/>
                </g>
            </g>
            <g transform="matrix(1.27724,0,0,0.518462,102.638,-214.022)">
                <path d="M472.456,2265.59C453.543,2265.59 441.467,2256.47 436.226,2238.24L410.933,2148.69L215.425,2148.69L190.132,2238.24C184.663,2256.47 172.7,2265.59 154.243,2265.59L118.013,2265.59C106.62,2265.59 98.473,2262.28 93.574,2255.68C88.675,2249.07 87.821,2240.29 91.011,2229.36L183.98,1920.03C196.512,1876.96 212.463,1846.89 231.831,1829.8C251.2,1812.71 278.429,1804.16 313.521,1804.16C348.84,1804.16 376.24,1812.76 395.723,1829.97C415.205,1847.17 430.985,1877.19 443.062,1920.03L535.689,2229.36C538.879,2240.29 538.024,2249.07 533.125,2255.68C528.226,2262.28 520.08,2265.59 508.687,2265.59L472.456,2265.59ZM238.667,2066.32L388.032,2066.32L349.409,1928.58C345.08,1913.08 340.295,1902.54 335.054,1896.96C329.813,1891.38 322.635,1888.59 313.521,1888.59C304.406,1888.59 297.228,1891.38 291.987,1896.96C286.747,1902.54 281.847,1913.08 277.29,1928.58L238.667,2066.32Z" style="fill:rgb(6,118,225);fill-rule:nonzero;"/>
                <path d="M986.519,1915.25C1036.19,1915.25 1074.47,1927.78 1101.36,1952.84C1128.25,1977.91 1141.69,2018.47 1141.69,2074.52L1141.69,2233.46C1141.69,2243.71 1138.9,2251.63 1133.32,2257.21C1127.74,2262.8 1119.82,2265.59 1109.57,2265.59L1078.46,2265.59C1068.21,2265.59 1060.29,2262.8 1054.71,2257.21C1049.12,2251.63 1046.33,2243.71 1046.33,2233.46L1046.33,2069.74C1046.33,2044.67 1040.81,2026.33 1029.76,2014.71C1018.71,2003.09 1001.67,1997.28 978.657,1997.28C955.871,1997.28 939.636,2002.97 929.951,2014.37C920.267,2025.76 915.425,2044.22 915.425,2069.74L915.425,2233.46C915.425,2243.71 912.577,2251.63 906.88,2257.21C901.183,2262.8 893.208,2265.59 882.954,2265.59L852.192,2265.59C841.939,2265.59 834.02,2262.8 828.438,2257.21C822.855,2251.63 820.064,2243.71 820.064,2233.46L820.064,2069.74C820.064,2044.22 815.221,2025.76 805.537,2014.37C795.853,2002.97 779.618,1997.28 756.831,1997.28C733.817,1997.28 716.784,2003.09 705.733,2014.71C694.681,2026.33 689.155,2044.67 689.155,2069.74L689.155,2233.46C689.155,2243.71 686.364,2251.63 680.781,2257.21C675.199,2262.8 667.28,2265.59 657.026,2265.59L625.923,2265.59C615.669,2265.59 607.694,2262.8 601.997,2257.21C596.301,2251.63 593.452,2243.71 593.452,2233.46L593.452,2074.52C593.452,2018.47 606.839,1977.91 633.613,1952.84C660.387,1927.78 698.612,1915.25 748.286,1915.25C806.392,1915.25 846.154,1931.65 867.573,1964.46C888.765,1931.65 928.413,1915.25 986.519,1915.25Z" style="fill:rgb(6,118,225);fill-rule:nonzero;"/>
                <path d="M1515.28,2225.6C1484.75,2256.36 1441,2271.74 1384.03,2271.74C1327.06,2271.74 1283.31,2256.3 1252.78,2225.43C1222.25,2194.55 1206.98,2150.63 1206.98,2093.66C1206.98,2036.47 1222.25,1992.43 1252.78,1961.56C1283.31,1930.68 1327.06,1915.25 1384.03,1915.25C1441,1915.25 1484.75,1930.68 1515.28,1961.56C1545.81,1992.43 1561.08,2036.47 1561.08,2093.66C1561.08,2150.63 1545.81,2194.61 1515.28,2225.6ZM1324.9,2166.81C1337.66,2182.3 1357.37,2190.05 1384.03,2190.05C1410.69,2190.05 1430.46,2182.36 1443.33,2166.98C1456.2,2151.6 1462.64,2127.16 1462.64,2093.66C1462.64,2060.17 1456.2,2035.73 1443.33,2020.35C1430.46,2004.97 1410.69,1997.28 1384.03,1997.28C1357.37,1997.28 1337.66,2004.97 1324.9,2020.35C1312.14,2035.73 1305.76,2060.17 1305.76,2093.66C1305.76,2126.93 1312.14,2151.31 1324.9,2166.81Z" style="fill:rgb(6,118,225);fill-rule:nonzero;"/>
                <path d="M1803.41,1918.32C1814.58,1918.09 1823.07,1920.71 1828.88,1926.18C1834.69,1931.65 1837.59,1939.63 1837.59,1950.11L1837.59,1970.62C1837.59,1991.81 1825.86,2002.63 1802.39,2003.09C1777.55,2003.54 1759.83,2004.8 1749.24,2006.85C1738.64,2008.9 1732.04,2011.92 1729.41,2015.9C1726.79,2019.89 1725.48,2026.79 1725.48,2036.58L1725.48,2233.46C1725.48,2243.71 1722.69,2251.63 1717.11,2257.21C1711.53,2262.8 1703.61,2265.59 1693.36,2265.59L1658.83,2265.59C1648.58,2265.59 1640.6,2262.8 1634.91,2257.21C1629.21,2251.63 1626.36,2243.71 1626.36,2233.46L1626.36,2022.57C1626.36,2005.71 1627.84,1991.87 1630.81,1981.04C1633.77,1970.22 1638.84,1960.65 1646.02,1952.33C1653.19,1944.01 1663.62,1937.58 1677.29,1933.02C1690.96,1928.46 1707.82,1924.99 1727.88,1922.59C1747.93,1920.2 1773.11,1918.78 1803.41,1918.32Z" style="fill:rgb(6,118,225);fill-rule:nonzero;"/>
                <path d="M2034.13,1915.25C2065.8,1915.25 2093.31,1918.32 2116.67,1924.47C2140.03,1930.63 2160.31,1940.6 2177.51,1954.38C2194.71,1968.17 2207.7,1986.62 2216.47,2009.75C2225.25,2032.88 2229.63,2060.91 2229.63,2093.83C2229.63,2126.76 2225.25,2154.73 2216.47,2177.75C2207.7,2200.76 2194.71,2219.1 2177.51,2232.78C2160.31,2246.45 2140.03,2256.36 2116.67,2262.51C2093.31,2268.66 2065.8,2271.74 2034.13,2271.74C2018.4,2271.74 2002.11,2271.06 1985.25,2269.69L1985.25,2373.25C1985.25,2383.51 1982.46,2391.48 1976.88,2397.18C1971.29,2402.88 1963.37,2405.72 1953.12,2405.72L1920.31,2405.72C1910.05,2405.72 1902.08,2402.88 1896.38,2397.18C1890.68,2391.48 1887.84,2383.51 1887.84,2373.25L1887.84,2025.3C1887.84,1986.34 1899.4,1958.26 1922.53,1941.05C1945.66,1923.85 1982.86,1915.25 2034.13,1915.25ZM2039.94,2190.05C2072.98,2190.05 2096.62,2182.93 2110.86,2168.69C2125.1,2154.45 2132.22,2129.49 2132.22,2093.83C2132.22,2058.17 2125.1,2033.17 2110.86,2018.81C2096.62,2004.46 2073.2,1997.28 2040.62,1997.28C2024.21,1997.28 2012.02,1998.99 2004.05,2002.4C1996.07,2005.82 1990.95,2010.61 1988.67,2016.76C1986.39,2022.91 1985.25,2032.03 1985.25,2044.1L1985.25,2186.29C2006.9,2188.8 2025.12,2190.05 2039.94,2190.05Z" style="fill:rgb(6,118,225);fill-rule:nonzero;"/>
                <path d="M2440.86,1915.25C2472.54,1915.25 2500.05,1918.32 2523.41,1924.47C2546.76,1930.63 2567.04,1940.54 2584.25,1954.21C2601.45,1967.88 2614.44,1986.28 2623.21,2009.41C2631.99,2032.54 2636.37,2060.51 2636.37,2093.32L2636.37,2233.46C2636.37,2243.71 2633.58,2251.63 2628,2257.21C2622.41,2262.8 2614.5,2265.59 2604.24,2265.59L2571.09,2265.59C2560.84,2265.59 2552.92,2262.8 2547.33,2257.21C2541.75,2251.63 2538.96,2243.71 2538.96,2233.46L2538.96,2093.32C2538.96,2056.86 2531.78,2031.68 2517.43,2017.79C2503.07,2003.88 2478.58,1996.93 2443.94,1996.93C2432.32,1996.93 2415,1997.73 2391.99,1999.33L2391.99,2233.46C2391.99,2243.71 2389.2,2251.63 2383.61,2257.21C2378.03,2262.8 2370.11,2265.59 2359.86,2265.59L2327.05,2265.59C2316.79,2265.59 2308.82,2262.8 2303.12,2257.21C2297.42,2251.63 2294.58,2243.71 2294.58,2233.46L2294.58,1807.92C2294.58,1797.67 2297.42,1789.69 2303.12,1784C2308.82,1778.3 2316.79,1775.45 2327.05,1775.45L2359.86,1775.45C2370.11,1775.45 2378.03,1778.3 2383.61,1784C2389.2,1789.69 2391.99,1797.67 2391.99,1807.92L2391.99,1917.3C2408.85,1915.93 2425.14,1915.25 2440.86,1915.25Z" style="fill:rgb(6,118,225);fill-rule:nonzero;"/>
                <path d="M2766.94,1876.62C2749.16,1876.62 2735.72,1871.95 2726.61,1862.61C2717.49,1853.27 2712.93,1840.11 2712.93,1823.13C2712.93,1806.15 2717.55,1792.88 2726.78,1783.31C2736.01,1773.74 2749.39,1768.96 2766.94,1768.96C2784.94,1768.96 2798.5,1773.68 2807.61,1783.14C2816.73,1792.6 2821.28,1805.99 2821.28,1823.3C2821.28,1840.39 2816.73,1853.55 2807.61,1862.78C2798.5,1872.01 2784.94,1876.62 2766.94,1876.62ZM2749.51,2265.59C2739.25,2265.59 2731.34,2262.8 2725.75,2257.21C2720.17,2251.63 2717.38,2243.71 2717.38,2233.46L2717.38,1953.87C2717.38,1943.62 2720.17,1935.64 2725.75,1929.94C2731.34,1924.25 2739.25,1921.4 2749.51,1921.4L2784.37,1921.4C2794.62,1921.4 2802.54,1924.25 2808.12,1929.94C2813.71,1935.64 2816.5,1943.62 2816.5,1953.87L2816.5,2233.46C2816.5,2243.71 2813.71,2251.63 2808.12,2257.21C2802.54,2262.8 2794.62,2265.59 2784.37,2265.59L2749.51,2265.59Z" style="fill:rgb(6,118,225);fill-rule:nonzero;"/>
                <path d="M3081.05,1995.57C3048.47,1995.57 3024.94,2003.32 3010.47,2018.81C2996,2034.31 2988.76,2059.31 2988.76,2093.83C2988.76,2128.36 2996,2153.19 3010.47,2168.35C3024.94,2183.5 3048.47,2191.08 3081.05,2191.08C3099.05,2191.08 3118.42,2189.25 3139.16,2185.61C3150.32,2183.78 3159.04,2185.26 3165.3,2190.05C3171.57,2194.84 3174.7,2202.81 3174.7,2213.98L3174.7,2225.94C3174.7,2245.53 3165.59,2257.5 3147.36,2261.83C3119.56,2268.66 3092.22,2271.97 3065.33,2271.74C3012.01,2271.74 2969.45,2256.64 2937.67,2226.45C2905.88,2196.26 2889.99,2152 2889.99,2093.66C2889.99,2035.33 2905.88,1991.01 2937.67,1960.7C2969.45,1930.4 3012.01,1915.25 3065.33,1915.25C3092.22,1915.25 3119.56,1918.66 3147.36,1925.5C3165.59,1929.6 3174.7,1941.45 3174.7,1961.05L3174.7,1973.01C3174.7,1983.95 3171.06,1991.75 3163.76,1996.42C3156.47,2001.09 3146.22,2002.4 3133,2000.35C3112.27,1997.16 3094.95,1995.57 3081.05,1995.57Z" style="fill:rgb(6,118,225);fill-rule:nonzero;"/>
                <path d="M3764.99,2265.59C3746.07,2265.59 3734,2256.47 3728.76,2238.24L3703.46,2148.69L3507.95,2148.69L3482.66,2238.24C3477.19,2256.47 3465.23,2265.59 3446.77,2265.59L3410.54,2265.59C3399.15,2265.59 3391,2262.28 3386.1,2255.68C3381.2,2249.07 3380.35,2240.29 3383.54,2229.36L3476.51,1920.03C3489.04,1876.96 3504.99,1846.89 3524.36,1829.8C3543.73,1812.71 3570.96,1804.16 3606.05,1804.16C3641.37,1804.16 3668.77,1812.76 3688.25,1829.97C3707.73,1847.17 3723.51,1877.19 3735.59,1920.03L3828.22,2229.36C3831.41,2240.29 3830.55,2249.07 3825.65,2255.68C3820.76,2262.28 3812.61,2265.59 3801.22,2265.59L3764.99,2265.59ZM3531.2,2066.32L3680.56,2066.32L3641.94,1928.58C3637.61,1913.08 3632.82,1902.54 3627.58,1896.96C3622.34,1891.38 3615.16,1888.59 3606.05,1888.59C3596.93,1888.59 3589.76,1891.38 3584.52,1896.96C3579.28,1902.54 3574.38,1913.08 3569.82,1928.58L3531.2,2066.32Z" style="fill:rgb(6,118,225);fill-rule:nonzero;"/>
                <path d="M3939.3,2265.59C3929.05,2265.59 3921.13,2262.8 3915.55,2257.21C3909.96,2251.63 3907.17,2243.71 3907.17,2233.46L3907.17,1842.79C3907.17,1832.53 3909.96,1824.61 3915.55,1819.03C3921.13,1813.45 3929.05,1810.66 3939.3,1810.66L3974.85,1810.66C3985.1,1810.66 3993.02,1813.45 3998.6,1819.03C4004.19,1824.61 4006.98,1832.53 4006.98,1842.79L4006.98,2233.46C4006.98,2243.71 4004.19,2251.63 3998.6,2257.21C3993.02,2262.8 3985.1,2265.59 3974.85,2265.59L3939.3,2265.59Z" style="fill:rgb(6,118,225);fill-rule:nonzero;"/>
            </g>
        </g>
    </g>
</svg>
