<?xml version="1.0" encoding="UTF-8" standalone="no"?>
<!DOCTYPE svg PUBLIC "-//W3C//DTD SVG 1.1//EN" "http://www.w3.org/Graphics/SVG/1.1/DTD/svg11.dtd">
<svg width="100%" height="100%" viewBox="0 0 2331 1732" version="1.1" xmlns="http://www.w3.org/2000/svg" xmlns:xlink="http://www.w3.org/1999/xlink" xml:space="preserve" xmlns:serif="http://www.serif.com/" style="fill-rule:evenodd;clip-rule:evenodd;stroke-linejoin:round;stroke-miterlimit:2;">
    <g id="Artboard1" transform="matrix(0.964181,0,0,0.978983,0,0)">
        <rect x="0" y="0" width="2416.93" height="1769.17" style="fill:none;"/>
        <g transform="matrix(1.28893,0,0,3.75723,-469.135,-6182.25)">
            <path d="M1735.54,1947.56C1768.86,1947.56 1799.11,1948.78 1826.3,1951.22C1853.49,1953.66 1877.38,1957.35 1897.97,1962.29C1918.56,1967.23 1934.51,1973.79 1945.82,1981.97C1957.14,1990.14 1962.8,1999.54 1962.8,2010.16L1962.8,2064C1962.8,2080.78 1951.01,2092.78 1927.43,2100.01C1903.86,2107.23 1865.83,2110.84 1813.34,2110.84L1703.48,2110.84C1640.31,2110.84 1592.92,2107.23 1561.33,2100.01C1529.74,2092.78 1513.95,2080.09 1513.95,2061.93C1513.95,2052.48 1518.19,2044.52 1526.68,2038.04C1535.16,2031.56 1547.97,2026.49 1565.1,2022.83C1582.23,2019.16 1601.88,2016.59 1624.04,2015.1C1646.2,2013.61 1672.68,2012.87 1703.48,2012.87L1828.42,2012.87L1828.42,2010.16C1828.42,1992.96 1791.02,1984.36 1716.21,1984.36C1681.95,1984.36 1640.46,1986.05 1591.74,1989.45C1576.34,1990.41 1564.32,1989.75 1555.67,1987.46C1547.03,1985.18 1542.71,1981.43 1542.71,1976.23L1542.71,1970.18C1542.71,1960.94 1558.27,1955.31 1589.38,1953.29C1642.82,1949.47 1691.54,1947.56 1735.54,1947.56ZM1780.33,2078.34C1799.82,2078.34 1812.71,2077.07 1819,2074.52C1825.28,2071.97 1828.42,2067.72 1828.42,2061.77L1828.42,2045.21L1710.56,2045.21C1682.27,2045.21 1663.41,2046.4 1653.98,2048.79C1644.55,2051.18 1639.83,2055.56 1639.83,2061.93C1639.83,2068.09 1644.47,2072.37 1653.74,2074.76C1663.01,2077.15 1681.8,2078.34 1710.08,2078.34L1780.33,2078.34Z" style="fill:rgb(6,118,225);fill-rule:nonzero;"/>
            <path d="M2142.9,1929.56C2118.38,1929.56 2099.84,1927.38 2087.27,1923.03C2074.69,1918.67 2068.41,1912.54 2068.41,1904.63C2068.41,1896.72 2074.77,1890.53 2087.5,1886.07C2100.23,1881.61 2118.7,1879.38 2142.9,1879.38C2167.73,1879.38 2186.43,1881.58 2199.01,1885.99C2211.58,1890.4 2217.87,1896.63 2217.87,1904.71C2217.87,1912.67 2211.58,1918.8 2199.01,1923.11C2186.43,1927.41 2167.73,1929.56 2142.9,1929.56ZM2118.86,2110.84C2104.71,2110.84 2093.79,2109.54 2086.09,2106.93C2078.39,2104.33 2074.54,2100.64 2074.54,2095.86L2074.54,1965.56C2074.54,1960.78 2078.39,1957.06 2086.09,1954.41C2093.79,1951.75 2104.71,1950.42 2118.86,1950.42L2166.95,1950.42C2181.09,1950.42 2192.01,1951.75 2199.71,1954.41C2207.41,1957.06 2211.26,1960.78 2211.26,1965.56L2211.26,2095.86C2211.26,2100.64 2207.41,2104.33 2199.71,2106.93C2192.01,2109.54 2181.09,2110.84 2166.95,2110.84L2118.86,2110.84Z" style="fill:rgb(6,118,225);fill-rule:nonzero;"/>
            <g transform="matrix(0.804657,0,0,0.271868,348.652,1639.83)">
                <path d="M1751.23,1032.48C1791.29,1034.21 1828.23,1039.72 1862.07,1048.72C1908.13,1060.97 1948.45,1079.79 1983.32,1104.55C1992.52,1111.08 2001.25,1118.09 2009.5,1125.59C1949.73,895.02 1828.76,416.621 1827.42,411.319L1826.9,409.339C1772.54,209.578 1643.36,74.846 1479.7,48.151C1478.15,47.9 1476.66,47.487 1475.1,47.257C1456.77,44.477 1438.4,43.104 1420.12,43.104C1271.83,43.094 1127.8,133.261 1026.03,293.232L1026.03,293.232L676.721,853.866L326.011,1416.77L277.052,976.058C371.764,1036.08 502.431,1117.53 509.57,1121.99L629.604,929.42C627.336,928.004 402.548,787.868 328.892,739.846C266.796,699.357 189.518,697.922 127.208,736.127C66.732,773.205 33.918,840.428 41.619,911.939L113.988,1563.33C122.484,1642.28 177.943,1704.97 255.249,1723.05C258.963,1723.91 262.67,1724.67 266.37,1725.31C339.921,1738.02 412.141,1706.27 453.267,1641.62L1218.03,414.132C1282.12,313.431 1365.5,260.148 1441.09,271.602L1441.11,271.608C1515.07,282.327 1577.02,356.177 1607.7,468.002C1612.92,488.675 1690.66,795.993 1751.23,1032.48ZM1384.27,1401.15L1013.25,1171.56L893.729,1364.44L1362.43,1654.34C1353.17,1624.75 1348.19,1590.94 1348.19,1552.59C1348.19,1501.73 1357.14,1459.09 1372.57,1424.23C1376.12,1416.2 1380.02,1408.51 1384.27,1401.15Z" style="fill:rgb(6,118,225);fill-rule:nonzero;"/>
            </g>
        </g>
    </g>
</svg>
